<svg xmlns="http://www.w3.org/2000/svg" xmlns:xlink="http://www.w3.org/1999/xlink" width="500" zoomAndPan="magnify" viewBox="0 0 375 374.999991" height="500" preserveAspectRatio="xMidYMid meet" version="1.0"><defs><clipPath id="7fe4f968f2"><path d="M 73.585938 224.742188 L 301.394531 224.742188 L 301.394531 343.445312 L 73.585938 343.445312 Z M 73.585938 224.742188 " clip-rule="nonzero"/></clipPath><clipPath id="3b34475d5b"><path d="M 132 228.253906 L 242.941406 228.253906 L 242.941406 343.445312 L 132 343.445312 Z M 132 228.253906 " clip-rule="nonzero"/></clipPath><clipPath id="2a7cab9962"><path d="M 108.019531 296.417969 L 113.640625 296.417969 L 113.640625 343.445312 L 108.019531 343.445312 Z M 108.019531 296.417969 " clip-rule="nonzero"/></clipPath><clipPath id="5e5efad993"><path d="M 261.214844 296.417969 L 267 296.417969 L 267 343.445312 L 261.214844 343.445312 Z M 261.214844 296.417969 " clip-rule="nonzero"/></clipPath></defs><g clip-path="url(#7fe4f968f2)"><path fill="#bc944d" d="M 297.160156 343.445312 L 77.875 343.445312 C 76.507812 343.445312 75.359375 342.414062 75.214844 341.054688 C 66.230469 256.792969 95.214844 247.058594 143.257812 230.925781 C 148.832031 229.054688 154.589844 227.113281 160.644531 224.949219 C 162.035156 224.453125 163.570312 225.179688 164.0625 226.566406 C 164.5625 227.957031 163.832031 229.488281 162.449219 229.984375 C 156.347656 232.164062 150.558594 234.113281 144.957031 235.996094 C 121.492188 243.875 102.953125 250.101562 91.796875 264.03125 C 80.191406 278.511719 76.617188 301.417969 80.292969 338.097656 L 294.742188 338.097656 C 300.902344 276.332031 285.519531 258.371094 253.226562 245.527344 C 250.484375 244.429688 247.859375 243.378906 245.257812 242.335938 C 235.875 238.558594 227.011719 234.992188 214.097656 230.339844 C 212.707031 229.839844 211.988281 228.304688 212.480469 226.921875 C 212.984375 225.527344 214.515625 224.808594 215.90625 225.304688 C 228.914062 229.992188 237.820312 233.570312 247.261719 237.367188 C 249.851562 238.414062 252.46875 239.464844 255.207031 240.550781 C 289.628906 254.242188 306.941406 274.320312 299.8125 341.054688 C 299.675781 342.414062 298.523438 343.445312 297.160156 343.445312 " fill-opacity="1" fill-rule="evenodd"/></g><path fill="#bc944d" d="M 187.519531 312.824219 C 187.507812 312.824219 187.5 312.824219 187.492188 312.824219 C 186.335938 312.8125 185.308594 312.058594 184.96875 310.949219 L 158.996094 228.269531 C 158.554688 226.863281 159.335938 225.359375 160.738281 224.914062 C 162.15625 224.46875 163.652344 225.257812 164.097656 226.671875 L 187.59375 301.472656 L 212.460938 226.976562 C 212.933594 225.574219 214.445312 224.816406 215.847656 225.289062 C 217.246094 225.757812 218.003906 227.269531 217.539062 228.667969 L 190.050781 310.996094 C 189.691406 312.085938 188.664062 312.824219 187.519531 312.824219 " fill-opacity="1" fill-rule="evenodd"/><g clip-path="url(#3b34475d5b)"><path fill="#bc944d" d="M 187.519531 343.445312 C 186.671875 343.445312 185.878906 343.046875 185.371094 342.363281 L 144.179688 287.109375 C 143.617188 286.351562 143.488281 285.347656 143.859375 284.46875 L 151.957031 265.347656 L 134.523438 261.609375 C 133.695312 261.429688 132.992188 260.855469 132.640625 260.074219 C 132.296875 259.292969 132.34375 258.398438 132.769531 257.660156 L 148.816406 229.753906 C 149.554688 228.472656 151.183594 228.035156 152.464844 228.765625 C 153.75 229.503906 154.1875 231.140625 153.453125 232.421875 L 139.234375 257.144531 L 156.25 260.792969 C 157.019531 260.960938 157.691406 261.46875 158.0625 262.179688 C 158.429688 262.882812 158.457031 263.71875 158.152344 264.449219 L 149.382812 285.144531 L 187.519531 336.292969 L 225.648438 285.144531 L 216.882812 264.449219 C 216.570312 263.71875 216.605469 262.882812 216.976562 262.179688 C 217.34375 261.46875 218.003906 260.960938 218.785156 260.792969 L 235.960938 257.105469 L 223.523438 233.070312 C 222.839844 231.757812 223.355469 230.144531 224.664062 229.46875 C 225.972656 228.785156 227.589844 229.300781 228.269531 230.613281 L 242.320312 257.761719 C 242.703125 258.5 242.71875 259.378906 242.363281 260.132812 C 242.007812 260.882812 241.316406 261.429688 240.503906 261.609375 L 223.070312 265.347656 L 231.167969 284.46875 C 231.546875 285.347656 231.417969 286.351562 230.855469 287.109375 L 189.664062 342.363281 C 189.15625 343.046875 188.359375 343.445312 187.519531 343.445312 " fill-opacity="1" fill-rule="evenodd"/></g><path fill="#bc944d" d="M 161.542969 230.144531 C 160.066406 230.144531 158.867188 228.945312 158.867188 227.472656 L 158.867188 212.621094 C 158.867188 211.140625 160.066406 209.945312 161.542969 209.945312 C 163.027344 209.945312 164.21875 211.144531 164.21875 212.621094 L 164.21875 227.472656 C 164.21875 228.945312 163.027344 230.144531 161.542969 230.144531 " fill-opacity="1" fill-rule="evenodd"/><path fill="#bc944d" d="M 215.003906 230.5 C 213.527344 230.5 212.328125 229.300781 212.328125 227.824219 L 212.328125 213.078125 C 212.328125 211.601562 213.523438 210.40625 215 210.40625 C 216.476562 210.40625 217.675781 211.601562 217.675781 213.078125 L 217.679688 227.824219 C 217.679688 229.300781 216.476562 230.5 215.003906 230.5 " fill-opacity="1" fill-rule="evenodd"/><path fill="#bc944d" d="M 189.960938 223.660156 C 175.21875 223.660156 160.992188 217.859375 152.808594 208.476562 C 135.339844 188.457031 134.417969 155.097656 135.429688 136.996094 C 135.511719 135.519531 136.757812 134.390625 138.25 134.476562 C 139.730469 134.558594 140.855469 135.820312 140.769531 137.292969 C 139.808594 154.582031 140.617188 186.367188 156.84375 204.957031 C 163.933594 213.078125 176.914062 218.3125 189.972656 218.3125 C 190.050781 218.3125 190.121094 218.3125 190.195312 218.3125 C 201.308594 218.261719 210.941406 214.425781 216.632812 207.777344 C 222.605469 200.804688 236.394531 179.890625 235.578125 136.203125 C 235.554688 134.726562 236.71875 133.507812 238.195312 133.480469 C 238.21875 133.480469 238.230469 133.480469 238.253906 133.480469 C 239.703125 133.480469 240.898438 134.640625 240.917969 136.101562 C 241.777344 181.625 227.066406 203.824219 220.699219 211.253906 C 213.894531 219.195312 203.070312 223.605469 190.226562 223.660156 C 190.136719 223.660156 190.050781 223.660156 189.960938 223.660156 " fill-opacity="1" fill-rule="evenodd"/><g clip-path="url(#2a7cab9962)"><path fill="#bc944d" d="M 110.820312 343.445312 C 109.34375 343.445312 108.144531 342.246094 108.144531 340.769531 L 108.144531 299.261719 C 108.144531 297.785156 109.34375 296.589844 110.820312 296.589844 C 112.296875 296.589844 113.496094 297.785156 113.496094 299.261719 L 113.496094 340.769531 C 113.496094 342.246094 112.296875 343.445312 110.820312 343.445312 " fill-opacity="1" fill-rule="evenodd"/></g><g clip-path="url(#5e5efad993)"><path fill="#bc944d" d="M 264.300781 343.445312 C 262.820312 343.445312 261.621094 342.246094 261.621094 340.769531 L 261.625 299.261719 C 261.625 297.785156 262.820312 296.589844 264.296875 296.589844 C 265.777344 296.589844 266.96875 297.785156 266.96875 299.261719 L 266.972656 340.769531 C 266.972656 342.246094 265.773438 343.445312 264.300781 343.445312 " fill-opacity="1" fill-rule="evenodd"/></g><path fill="#bc944d" d="M 247.445312 120.757812 C 245.96875 120.757812 244.773438 119.5625 244.773438 118.085938 L 244.773438 101.769531 C 206.378906 85.375 168.855469 85.375 130.175781 101.78125 L 130.175781 118.085938 C 130.175781 119.5625 128.984375 120.757812 127.503906 120.757812 C 126.027344 120.757812 124.828125 119.5625 124.828125 118.085938 L 124.828125 100.015625 C 124.828125 98.949219 125.460938 97.988281 126.433594 97.5625 C 167.660156 79.609375 207.597656 79.613281 248.519531 97.5625 C 249.496094 97.988281 250.125 98.949219 250.125 100.015625 L 250.125 118.085938 C 250.125 119.5625 248.925781 120.757812 247.445312 120.757812 " fill-opacity="1" fill-rule="evenodd"/><path fill="#bc944d" d="M 130.292969 119.972656 C 131.125 127.246094 136.773438 134.128906 146.40625 139.519531 C 157.363281 145.640625 171.984375 149.019531 187.585938 149.019531 C 203.183594 149.019531 217.804688 145.640625 228.757812 139.519531 C 238.390625 134.128906 244.039062 127.25 244.878906 119.988281 C 206.5625 107.566406 168.027344 107.5625 130.292969 119.972656 Z M 187.589844 154.367188 C 171.085938 154.367188 155.539062 150.753906 143.796875 144.183594 C 131.5625 137.34375 124.828125 128.074219 124.828125 118.085938 C 124.828125 116.941406 125.558594 115.925781 126.644531 115.558594 C 166.769531 101.898438 207.773438 101.898438 248.511719 115.546875 C 249.601562 115.910156 250.335938 116.933594 250.335938 118.085938 C 250.339844 128.070312 243.601562 137.34375 231.371094 144.183594 C 219.636719 150.753906 204.082031 154.367188 187.589844 154.367188 " fill-opacity="1" fill-rule="evenodd"/><path fill="#bc944d" d="M 127.523438 102.753906 C 127.136719 102.753906 126.734375 102.667969 126.359375 102.480469 C 119.546875 99.179688 114.820312 92.097656 114.023438 84.003906 C 113.0625 74.292969 117.828125 64.703125 127.097656 57.679688 C 132.765625 53.390625 146.25 45.445312 172.980469 40.394531 C 186.207031 37.890625 193.972656 37.890625 206.226562 40.40625 C 230.992188 45.484375 243.664062 53.035156 249.015625 57.085938 C 258.40625 64.199219 263.152344 73.832031 262.046875 83.523438 C 261.09375 91.894531 255.917969 99.148438 248.539062 102.453125 C 247.199219 103.058594 245.617188 102.453125 245.007812 101.109375 C 244.402344 99.757812 245.007812 98.179688 246.355469 97.570312 C 252.019531 95.035156 255.996094 89.421875 256.730469 82.914062 C 257.632812 75.039062 253.746094 67.382812 245.78125 61.351562 C 240.796875 57.578125 228.886719 50.511719 205.152344 45.644531 C 193.550781 43.269531 186.558594 43.269531 173.96875 45.644531 C 148.324219 50.492188 135.617188 57.9375 130.324219 61.945312 C 119.714844 69.980469 118.890625 78.882812 119.34375 83.472656 C 119.964844 89.734375 123.542969 95.175781 128.691406 97.671875 C 130.027344 98.316406 130.574219 99.917969 129.933594 101.242188 C 129.476562 102.195312 128.519531 102.753906 127.523438 102.753906 " fill-opacity="1" fill-rule="evenodd"/><path fill="#bc944d" d="M 188.054688 60.328125 C 183.484375 60.328125 179.761719 63.320312 179.761719 67 C 179.765625 70.679688 183.484375 73.671875 188.054688 73.671875 C 192.628906 73.671875 196.34375 70.679688 196.34375 67 C 196.34375 63.320312 192.628906 60.328125 188.054688 60.328125 Z M 188.054688 79.023438 C 180.53125 79.023438 174.414062 73.632812 174.414062 67 C 174.414062 60.367188 180.53125 54.976562 188.054688 54.976562 C 195.578125 54.976562 201.691406 60.367188 201.691406 67 C 201.691406 73.632812 195.578125 79.023438 188.054688 79.023438 " fill-opacity="1" fill-rule="evenodd"/><path fill="#bc944d" d="M 164.355469 63.050781 C 165.835938 65.695312 168.890625 69.222656 174.988281 70.476562 C 174.613281 69.359375 174.414062 68.195312 174.414062 67 C 174.414062 65.636719 174.664062 64.304688 175.152344 63.050781 Z M 179.867188 76.292969 C 164.816406 76.292969 158.867188 66.257812 157.832031 60.890625 C 157.675781 60.105469 157.875 59.292969 158.386719 58.675781 C 158.894531 58.0625 159.65625 57.707031 160.453125 57.707031 L 180.316406 57.707031 C 181.4375 57.707031 182.441406 58.40625 182.820312 59.457031 C 183.214844 60.507812 182.898438 61.695312 182.042969 62.414062 C 180.574219 63.671875 179.761719 65.292969 179.761719 67 C 179.765625 68.699219 180.574219 70.328125 182.042969 71.574219 C 182.890625 72.300781 183.195312 73.46875 182.820312 74.523438 C 182.449219 75.566406 181.457031 76.269531 180.34375 76.292969 C 180.183594 76.292969 180.03125 76.292969 179.867188 76.292969 " fill-opacity="1" fill-rule="evenodd"/><path fill="#bc944d" d="M 200.953125 63.050781 C 201.441406 64.304688 201.691406 65.636719 201.691406 67 C 201.691406 68.195312 201.496094 69.375 201.121094 70.488281 C 207.296875 69.242188 210.34375 65.710938 211.792969 63.050781 Z M 196.238281 76.292969 C 196.085938 76.292969 195.921875 76.292969 195.765625 76.292969 C 194.648438 76.269531 193.667969 75.566406 193.285156 74.523438 C 192.910156 73.46875 193.222656 72.300781 194.070312 71.574219 C 195.535156 70.328125 196.34375 68.699219 196.34375 67 C 196.34375 65.292969 195.535156 63.671875 194.066406 62.414062 C 193.207031 61.691406 192.902344 60.507812 193.285156 59.457031 C 193.675781 58.40625 194.675781 57.707031 195.800781 57.707031 L 215.65625 57.707031 C 216.449219 57.707031 217.210938 58.0625 217.71875 58.675781 C 218.230469 59.292969 218.433594 60.105469 218.28125 60.890625 C 217.242188 66.257812 211.289062 76.292969 196.234375 76.292969 L 196.238281 76.292969 " fill-opacity="1" fill-rule="evenodd"/><path fill="#bc944d" d="M 89.90625 277.65625 C 89.738281 277.65625 89.5625 277.644531 89.394531 277.605469 C 88.699219 277.476562 88.085938 277.070312 87.6875 276.480469 L 83.308594 269.972656 C 82.484375 268.746094 82.804688 267.089844 84.03125 266.261719 C 85.257812 265.4375 86.921875 265.757812 87.746094 266.988281 L 90.625 271.277344 L 123.269531 249.285156 L 119.070312 243.050781 C 118.246094 241.824219 118.566406 240.160156 119.792969 239.339844 C 121.019531 238.507812 122.683594 238.839844 123.503906 240.0625 L 129.203125 248.511719 C 129.601562 249.105469 129.746094 249.820312 129.605469 250.519531 C 129.476562 251.214844 129.0625 251.828125 128.476562 252.226562 L 91.402344 277.203125 C 90.957031 277.503906 90.429688 277.65625 89.90625 277.65625 " fill-opacity="1" fill-rule="evenodd"/><path fill="#bc944d" d="M 101.625 269.769531 C 100.765625 269.769531 99.917969 269.351562 99.402344 268.585938 L 92.558594 258.425781 C 91.738281 257.199219 92.054688 255.542969 93.28125 254.714844 C 94.507812 253.890625 96.171875 254.210938 96.992188 255.4375 L 103.839844 265.601562 C 104.664062 266.824219 104.339844 268.492188 103.117188 269.3125 C 102.65625 269.617188 102.132812 269.773438 101.625 269.769531 " fill-opacity="1" fill-rule="evenodd"/><path fill="#bc944d" d="M 115.269531 260.578125 C 114.410156 260.578125 113.5625 260.160156 113.046875 259.394531 L 106.046875 249.007812 C 105.226562 247.789062 105.554688 246.125 106.773438 245.296875 C 108 244.472656 109.664062 244.800781 110.488281 246.019531 L 117.488281 256.40625 C 118.308594 257.632812 117.984375 259.292969 116.761719 260.117188 C 116.300781 260.429688 115.789062 260.578125 115.269531 260.578125 " fill-opacity="1" fill-rule="evenodd"/><path fill="#bc944d" d="M 285.0625 277.660156 C 284.546875 277.660156 284.023438 277.511719 283.5625 277.203125 L 246.496094 252.226562 C 245.269531 251.402344 244.941406 249.738281 245.769531 248.511719 L 250.792969 241.058594 C 251.613281 239.835938 253.277344 239.515625 254.5 240.335938 C 255.730469 241.164062 256.050781 242.820312 255.226562 244.050781 L 251.699219 249.285156 L 284.335938 271.277344 L 286.839844 267.558594 C 287.667969 266.339844 289.324219 266.007812 290.550781 266.839844 C 291.78125 267.660156 292.101562 269.324219 291.273438 270.550781 L 287.277344 276.480469 C 286.765625 277.246094 285.917969 277.65625 285.0625 277.660156 " fill-opacity="1" fill-rule="evenodd"/><path fill="#bc944d" d="M 273.347656 269.769531 C 272.832031 269.769531 272.3125 269.617188 271.855469 269.3125 C 270.628906 268.492188 270.300781 266.824219 271.128906 265.601562 L 277.460938 256.195312 C 278.289062 254.96875 279.949219 254.640625 281.175781 255.472656 C 282.398438 256.292969 282.726562 257.957031 281.898438 259.183594 L 275.570312 268.585938 C 275.054688 269.351562 274.203125 269.773438 273.34375 269.773438 L 273.347656 269.769531 " fill-opacity="1" fill-rule="evenodd"/><path fill="#bc944d" d="M 259.699219 260.578125 C 259.183594 260.578125 258.660156 260.429688 258.207031 260.117188 C 256.984375 259.292969 256.652344 257.632812 257.484375 256.40625 L 263.867188 246.925781 C 264.695312 245.707031 266.351562 245.378906 267.578125 246.199219 C 268.804688 247.03125 269.128906 248.695312 268.300781 249.914062 L 261.921875 259.394531 C 261.398438 260.160156 260.558594 260.578125 259.699219 260.578125 " fill-opacity="1" fill-rule="evenodd"/></svg>